<svg width="32" height="32" viewBox="0 0 32 32" xmlns="http://www.w3.org/2000/svg">
  <!-- Gradient background -->
  <defs>
    <radialGradient id="cosmicGradient" cx="50%" cy="30%" r="70%">
      <stop offset="0%" style="stop-color:#8B5CF6;stop-opacity:1" />
      <stop offset="50%" style="stop-color:#3B82F6;stop-opacity:1" />
      <stop offset="100%" style="stop-color:#1E1B4B;stop-opacity:1" />
    </radialGradient>
    <filter id="glow">
      <feGaussianBlur stdDeviation="1" result="coloredBlur"/>
      <feMerge> 
        <feMergeNode in="coloredBlur"/>
        <feMergeNode in="SourceGraphic"/>
      </feMerge>
    </filter>
  </defs>
  
  <!-- Cosmic background -->
  <rect width="32" height="32" rx="6" fill="url(#cosmicGradient)"/>
  
  <!-- Stars -->
  <circle cx="7" cy="8" r="0.8" fill="#FBBF24" opacity="0.9"/>
  <circle cx="25" cy="6" r="0.6" fill="#F59E0B" opacity="0.8"/>
  <circle cx="26" cy="24" r="0.7" fill="#FBBF24" opacity="0.9"/>
  <circle cx="6" cy="25" r="0.5" fill="#F59E0B" opacity="0.7"/>
  
  <!-- Central zodiac wheel -->
  <circle cx="16" cy="16" r="9" fill="none" stroke="#FFFFFF" stroke-width="1.2" opacity="0.6"/>
  
  <!-- Zodiac symbols (simplified) -->
  <!-- Aries symbol -->
  <path d="M12 10 Q13 8 14 10 M14 10 Q15 8 16 10" fill="none" stroke="#F8FAFC" stroke-width="1" opacity="0.8"/>
  
  <!-- Leo symbol -->  
  <circle cx="20" cy="13" r="1.5" fill="none" stroke="#F8FAFC" stroke-width="1" opacity="0.8"/>
  <path d="M18.5 13 Q19 11.5 20.5 13" fill="none" stroke="#F8FAFC" stroke-width="1" opacity="0.8"/>
  
  <!-- Libra symbol -->
  <path d="M18 20 L22 20 M20 18 L20 22" stroke="#F8FAFC" stroke-width="1" opacity="0.8"/>
  <path d="M18 18 L22 18" stroke="#F8FAFC" stroke-width="1" opacity="0.8"/>
  
  <!-- Aquarius symbol -->
  <path d="M10 20 Q12 18 14 20 Q16 22 18 20" fill="none" stroke="#F8FAFC" stroke-width="1" opacity="0.8"/>
  <path d="M10 22 Q12 20 14 22 Q16 24 18 22" fill="none" stroke="#F8FAFC" stroke-width="1" opacity="0.8"/>
  
  <!-- Central celestial body (Sun/Moon) -->
  <circle cx="16" cy="16" r="3" fill="#FBBF24" filter="url(#glow)" opacity="0.9"/>
  <circle cx="16" cy="16" r="2" fill="#F59E0B"/>
  
  <!-- Sun rays -->
  <g stroke="#FBBF24" stroke-width="1" opacity="0.7">
    <line x1="16" y1="8" x2="16" y2="10"/>
    <line x1="16" y1="22" x2="16" y2="24"/>
    <line x1="24" y1="16" x2="22" y2="16"/>
    <line x1="8" y1="16" x2="10" y2="16"/>
    <line x1="21.5" y1="10.5" x2="20.1" y2="11.9"/>
    <line x1="10.5" y1="21.5" x2="11.9" y2="20.1"/>
    <line x1="21.5" y1="21.5" x2="20.1" y2="20.1"/>
    <line x1="10.5" y1="10.5" x2="11.9" y2="11.9"/>
  </g>
</svg>