<svg width="64" height="64" viewBox="0 0 64 64" xmlns="http://www.w3.org/2000/svg">
  <!-- Gradient background -->
  <defs>
    <radialGradient id="cosmicGradient" cx="50%" cy="30%" r="70%">
      <stop offset="0%" style="stop-color:#8B5CF6;stop-opacity:1" />
      <stop offset="50%" style="stop-color:#3B82F6;stop-opacity:1" />
      <stop offset="100%" style="stop-color:#1E1B4B;stop-opacity:1" />
    </radialGradient>
    <filter id="glow">
      <feGaussianBlur stdDeviation="2" result="coloredBlur"/>
      <feMerge> 
        <feMergeNode in="coloredBlur"/>
        <feMergeNode in="SourceGraphic"/>
      </feMerge>
    </filter>
  </defs>
  
  <!-- Cosmic background -->
  <rect width="64" height="64" rx="12" fill="url(#cosmicGradient)"/>
  
  <!-- Stars -->
  <circle cx="14" cy="16" r="1.6" fill="#FBBF24" opacity="0.9"/>
  <circle cx="50" cy="12" r="1.2" fill="#F59E0B" opacity="0.8"/>
  <circle cx="52" cy="48" r="1.4" fill="#FBBF24" opacity="0.9"/>
  <circle cx="12" cy="50" r="1" fill="#F59E0B" opacity="0.7"/>
  
  <!-- Central zodiac wheel -->
  <circle cx="32" cy="32" r="18" fill="none" stroke="#FFFFFF" stroke-width="2.4" opacity="0.6"/>
  
  <!-- Central celestial body (Sun) -->
  <circle cx="32" cy="32" r="6" fill="#FBBF24" filter="url(#glow)" opacity="0.9"/>
  <circle cx="32" cy="32" r="4" fill="#F59E0B"/>
  
  <!-- Sun rays -->
  <g stroke="#FBBF24" stroke-width="2" opacity="0.7">
    <line x1="32" y1="16" x2="32" y2="20"/>
    <line x1="32" y1="44" x2="32" y2="48"/>
    <line x1="48" y1="32" x2="44" y2="32"/>
    <line x1="16" y1="32" x2="20" y2="32"/>
    <line x1="43" y1="21" x2="40.2" y2="23.8"/>
    <line x1="21" y1="43" x2="23.8" y2="40.2"/>
    <line x1="43" y1="43" x2="40.2" y2="40.2"/>
    <line x1="21" y1="21" x2="23.8" y2="23.8"/>
  </g>
</svg>